<svg width="1600" height="1000" viewBox="0 0 1600 1000" fill="none" xmlns="http://www.w3.org/2000/svg">
<defs>
  <linearGradient id="bg" x1="0" y1="0" x2="1600" y2="1000" gradientUnits="userSpaceOnUse">
    <stop stop-color="#090B10"/>
    <stop offset="1" stop-color="#111521"/>
  </linearGradient>
  <linearGradient id="accent" x1="1120" y1="100" x2="1500" y2="520" gradientUnits="userSpaceOnUse">
    <stop stop-color="#7C5CFC"/>
    <stop offset="1" stop-color="#4D7CFE"/>
  </linearGradient>
  <filter id="shadow" x="-40%" y="-40%" width="180%" height="180%">
    <feDropShadow dx="0" dy="18" stdDeviation="24" flood-color="#000000" flood-opacity="0.28"/>
  </filter>
</defs>

<rect width="1600" height="1000" rx="28" fill="url(#bg)"/>
<rect x="28" y="28" width="1544" height="944" rx="24" stroke="#FFFFFF" stroke-opacity=".08"/>

<!-- top bar -->
<rect x="28" y="28" width="1544" height="76" rx="24" fill="#0D1017"/>
<rect x="28" y="80" width="1544" height="24" fill="#0D1017"/>
<circle cx="68" cy="66" r="8" fill="#7C5CFC"/>
<text x="92" y="74" fill="#F7F8FA" font-family="Inter, Arial, sans-serif" font-size="22" font-weight="700">ZEUS AGENT</text>
<text x="300" y="72" fill="#FFFFFF" fill-opacity=".48" font-family="Inter, Arial, sans-serif" font-size="14">Inbox</text>
<text x="370" y="72" fill="#FFFFFF" fill-opacity=".48" font-family="Inter, Arial, sans-serif" font-size="14">Conhecimento</text>
<text x="484" y="72" fill="#FFFFFF" fill-opacity=".48" font-family="Inter, Arial, sans-serif" font-size="14">Agenda</text>
<text x="548" y="72" fill="#FFFFFF" fill-opacity=".48" font-family="Inter, Arial, sans-serif" font-size="14">Indicadores</text>
<rect x="1378" y="49" width="146" height="36" rx="18" fill="#171C27"/>
<circle cx="1400" cy="67" r="6" fill="#4ADE80"/>
<text x="1416" y="72" fill="#D7DBE4" font-family="Inter, Arial, sans-serif" font-size="12">IA operacional</text>

<!-- left sidebar -->
<rect x="28" y="104" width="310" height="868" fill="#0B0E14"/>
<text x="56" y="146" fill="#FFFFFF" fill-opacity=".38" font-family="Inter, Arial, sans-serif" font-size="11" letter-spacing="1.8">CONVERSAS</text>
<rect x="52" y="168" width="258" height="46" rx="12" fill="#151A24"/>
<text x="70" y="197" fill="#FFFFFF" fill-opacity=".46" font-family="Inter, Arial, sans-serif" font-size="14">⌕  Buscar conversa</text>

<rect x="48" y="236" width="266" height="88" rx="16" fill="#181D28" stroke="#7C5CFC" stroke-opacity=".35"/>
<circle cx="78" cy="268" r="18" fill="#243229"/>
<text x="72" y="274" fill="#7CFFB2" font-family="Inter, Arial, sans-serif" font-size="14" font-weight="700">A</text>
<text x="108" y="260" fill="#F5F7FB" font-family="Inter, Arial, sans-serif" font-size="14" font-weight="600">Ana • Studio Aurora</text>
<text x="108" y="282" fill="#FFFFFF" fill-opacity=".5" font-family="Inter, Arial, sans-serif" font-size="12">Queria confirmar meu horário...</text>
<rect x="108" y="296" width="76" height="18" rx="9" fill="#1D3B2B"/>
<text x="118" y="309" fill="#74E8A4" font-family="Inter, Arial, sans-serif" font-size="10">WHATSAPP</text>

<circle cx="78" cy="362" r="18" fill="#2B2436"/>
<text x="72" y="368" fill="#C8A4FF" font-family="Inter, Arial, sans-serif" font-size="14" font-weight="700">M</text>
<text x="108" y="354" fill="#F5F7FB" font-family="Inter, Arial, sans-serif" font-size="14" font-weight="600">Marcos • Direct</text>
<text x="108" y="376" fill="#FFFFFF" fill-opacity=".45" font-family="Inter, Arial, sans-serif" font-size="12">Vocês atendem aos sábados?</text>

<circle cx="78" cy="442" r="18" fill="#253045"/>
<text x="72" y="448" fill="#88A9FF" font-family="Inter, Arial, sans-serif" font-size="14" font-weight="700">J</text>
<text x="108" y="434" fill="#F5F7FB" font-family="Inter, Arial, sans-serif" font-size="14" font-weight="600">Juliana • WhatsApp</text>
<text x="108" y="456" fill="#FFFFFF" fill-opacity=".45" font-family="Inter, Arial, sans-serif" font-size="12">Qual o valor do procedimento?</text>

<text x="56" y="526" fill="#FFFFFF" fill-opacity=".34" font-family="Inter, Arial, sans-serif" font-size="11" letter-spacing="1.8">FILTROS</text>
<rect x="52" y="548" width="126" height="36" rx="18" fill="#171C27"/>
<text x="76" y="571" fill="#DDE1EA" font-family="Inter, Arial, sans-serif" font-size="12">Todos  18</text>
<rect x="188" y="548" width="122" height="36" rx="18" fill="#10141C" stroke="#FFFFFF" stroke-opacity=".08"/>
<text x="208" y="571" fill="#FFFFFF" fill-opacity=".48" font-family="Inter, Arial, sans-serif" font-size="12">Humano  3</text>

<!-- conversation -->
<rect x="338" y="104" width="840" height="868" fill="#0F131B"/>
<rect x="338" y="104" width="840" height="82" fill="#111620"/>
<text x="374" y="138" fill="#F7F8FA" font-family="Inter, Arial, sans-serif" font-size="17" font-weight="600">Ana • Studio Aurora</text>
<text x="374" y="161" fill="#FFFFFF" fill-opacity=".42" font-family="Inter, Arial, sans-serif" font-size="12">WhatsApp • atendimento iniciado há 4 min</text>
<rect x="980" y="125" width="160" height="38" rx="19" fill="#1A2530"/>
<circle cx="1003" cy="144" r="6" fill="#4ADE80"/>
<text x="1018" y="149" fill="#D9E3EA" font-family="Inter, Arial, sans-serif" font-size="12">IA respondendo</text>

<text x="374" y="232" fill="#FFFFFF" fill-opacity=".28" font-family="Inter, Arial, sans-serif" font-size="11" letter-spacing="1.6">HOJE, 14:32</text>

<rect x="374" y="262" width="410" height="94" rx="18" fill="#1A202B"/>
<text x="398" y="296" fill="#F2F4F8" font-family="Inter, Arial, sans-serif" font-size="14">Oi! Queria confirmar meu horário de amanhã</text>
<text x="398" y="320" fill="#F2F4F8" font-family="Inter, Arial, sans-serif" font-size="14">e saber se preciso chegar mais cedo.</text>
<text x="716" y="340" fill="#FFFFFF" fill-opacity=".34" font-family="Inter, Arial, sans-serif" font-size="10">14:32</text>

<rect x="570" y="388" width="544" height="146" rx="18" fill="url(#accent)" filter="url(#shadow)"/>
<circle cx="602" cy="421" r="15" fill="#FFFFFF" fill-opacity=".16"/>
<text x="596" y="427" fill="#FFFFFF" font-family="Inter, Arial, sans-serif" font-size="13" font-weight="700">Z</text>
<text x="628" y="425" fill="#FFFFFF" font-family="Inter, Arial, sans-serif" font-size="12" font-weight="600">ZEUS AGENT</text>
<text x="598" y="463" fill="#FFFFFF" font-family="Inter, Arial, sans-serif" font-size="14">Seu horário está confirmado para amanhã às 15h.</text>
<text x="598" y="488" fill="#FFFFFF" font-family="Inter, Arial, sans-serif" font-size="14">Você pode chegar 10 minutos antes para o cadastro.</text>
<text x="1034" y="516" fill="#FFFFFF" fill-opacity=".6" font-family="Inter, Arial, sans-serif" font-size="10">14:33 ✓✓</text>

<rect x="374" y="572" width="360" height="70" rx="18" fill="#1A202B"/>
<text x="398" y="602" fill="#F2F4F8" font-family="Inter, Arial, sans-serif" font-size="14">Perfeito, obrigada! 😊</text>
<text x="666" y="627" fill="#FFFFFF" fill-opacity=".34" font-family="Inter, Arial, sans-serif" font-size="10">14:34</text>

<rect x="374" y="864" width="764" height="74" rx="18" fill="#171C27"/>
<text x="402" y="907" fill="#FFFFFF" fill-opacity=".34" font-family="Inter, Arial, sans-serif" font-size="14">Responder como ZEUS AGENT...</text>
<circle cx="1095" cy="901" r="22" fill="#7C5CFC"/>
<path d="M1087 901H1103M1097 895L1103 901L1097 907" stroke="white" stroke-width="2" stroke-linecap="round" stroke-linejoin="round"/>

<!-- right intelligence panel -->
<rect x="1178" y="104" width="394" height="868" fill="#0B0E14"/>
<text x="1212" y="146" fill="#FFFFFF" fill-opacity=".36" font-family="Inter, Arial, sans-serif" font-size="11" letter-spacing="1.8">CONTEXTO DA IA</text>

<rect x="1206" y="174" width="338" height="148" rx="18" fill="#141923" stroke="#FFFFFF" stroke-opacity=".07"/>
<text x="1230" y="207" fill="#F5F7FB" font-family="Inter, Arial, sans-serif" font-size="14" font-weight="600">Base aprovada</text>
<text x="1230" y="235" fill="#FFFFFF" fill-opacity=".47" font-family="Inter, Arial, sans-serif" font-size="12">• Política de agendamento</text>
<text x="1230" y="258" fill="#FFFFFF" fill-opacity=".47" font-family="Inter, Arial, sans-serif" font-size="12">• Serviços e preços</text>
<text x="1230" y="281" fill="#FFFFFF" fill-opacity=".47" font-family="Inter, Arial, sans-serif" font-size="12">• Horários da unidade</text>
<rect x="1230" y="294" width="112" height="18" rx="9" fill="#1E2B25"/>
<text x="1242" y="307" fill="#6EE7A8" font-family="Inter, Arial, sans-serif" font-size="10">3 FONTES ATIVAS</text>

<rect x="1206" y="342" width="338" height="158" rx="18" fill="#141923" stroke="#FFFFFF" stroke-opacity=".07"/>
<text x="1230" y="375" fill="#F5F7FB" font-family="Inter, Arial, sans-serif" font-size="14" font-weight="600">Estado da conversa</text>
<text x="1230" y="406" fill="#FFFFFF" fill-opacity=".46" font-family="Inter, Arial, sans-serif" font-size="12">Intenção</text>
<text x="1438" y="406" fill="#D8DCEF" font-family="Inter, Arial, sans-serif" font-size="12">Agendamento</text>
<text x="1230" y="434" fill="#FFFFFF" fill-opacity=".46" font-family="Inter, Arial, sans-serif" font-size="12">Confiança</text>
<text x="1455" y="434" fill="#D8DCEF" font-family="Inter, Arial, sans-serif" font-size="12">96%</text>
<text x="1230" y="462" fill="#FFFFFF" fill-opacity=".46" font-family="Inter, Arial, sans-serif" font-size="12">Responsável</text>
<text x="1418" y="462" fill="#8EA9FF" font-family="Inter, Arial, sans-serif" font-size="12">ZEUS Agent</text>

<rect x="1206" y="520" width="338" height="168" rx="18" fill="#141923" stroke="#FFFFFF" stroke-opacity=".07"/>
<text x="1230" y="553" fill="#F5F7FB" font-family="Inter, Arial, sans-serif" font-size="14" font-weight="600">Ações sugeridas</text>
<rect x="1230" y="577" width="290" height="40" rx="12" fill="#1A2030"/>
<text x="1248" y="602" fill="#DCE2F4" font-family="Inter, Arial, sans-serif" font-size="12">Consultar agenda</text>
<text x="1490" y="602" fill="#7C5CFC" font-family="Inter, Arial, sans-serif" font-size="14">↗</text>
<rect x="1230" y="627" width="290" height="40" rx="12" fill="#1A2030"/>
<text x="1248" y="652" fill="#DCE2F4" font-family="Inter, Arial, sans-serif" font-size="12">Registrar observação</text>
<text x="1490" y="652" fill="#7C5CFC" font-family="Inter, Arial, sans-serif" font-size="14">↗</text>

<rect x="1206" y="716" width="338" height="86" rx="18" fill="#1A1523" stroke="#7C5CFC" stroke-opacity=".24"/>
<text x="1230" y="748" fill="#F1EAFE" font-family="Inter, Arial, sans-serif" font-size="13" font-weight="600">Transferência humana</text>
<text x="1230" y="773" fill="#FFFFFF" fill-opacity=".43" font-family="Inter, Arial, sans-serif" font-size="11">Pausar IA e assumir conversa</text>
<rect x="1460" y="745" width="54" height="30" rx="15" fill="#7C5CFC"/>
<circle cx="1499" cy="760" r="11" fill="white"/>

<text x="1206" y="858" fill="#FFFFFF" fill-opacity=".28" font-family="Inter, Arial, sans-serif" font-size="10" letter-spacing="1.4">PROTÓTIPO CONCEITUAL</text>
<text x="1206" y="882" fill="#FFFFFF" fill-opacity=".5" font-family="Inter, Arial, sans-serif" font-size="12">Interface planejada para o MVP</text>
</svg>